<svg xmlns="http://www.w3.org/2000/svg" viewBox="0 0 3167.84 3780.42"><defs><style>.cls-1{isolation:isolate;}.cls-2{fill:#2f313d;}.cls-3{fill:#613d1a;}.cls-4{fill:#787878;}.cls-15,.cls-5{fill:#9495a7;}.cls-6{fill:#242424;}.cls-7{fill:#404251;}.cls-8{fill:gray;}.cls-9{fill:#edff9d;}.cls-10{fill:#fff;}.cls-11{fill:#060023;}.cls-12{fill:#0c000d;}.cls-13,.cls-14,.cls-21,.cls-22{fill:none;}.cls-13,.cls-17,.cls-21,.cls-22{stroke:#1a1a1a;}.cls-13,.cls-14,.cls-17,.cls-18{stroke-linecap:round;}.cls-13,.cls-14,.cls-17,.cls-18,.cls-21,.cls-22{stroke-miterlimit:10;}.cls-13{stroke-width:16px;}.cls-14,.cls-18{stroke:#999;}.cls-14{stroke-width:46.68px;}.cls-15{mix-blend-mode:color-burn;opacity:0.5;}.cls-16{fill:#292929;}.cls-17,.cls-18{stroke-width:76.02px;}.cls-19{fill:#1a1a1a;}.cls-20{fill:#945e27;}.cls-21{stroke-width:13.34px;}.cls-22{stroke-width:8.75px;}</style></defs><g class="cls-1"><g id="Layer_1" data-name="Layer 1"><rect class="cls-2" x="2383.77" y="2232.95" width="111.2" height="661.04" transform="translate(2651.42 -1039.58) rotate(53.82)"/><path class="cls-3" d="M2273.09,2910.57l-190.55-180.78a22.49,22.49,0,0,1,2.18-31.73L2126,2663.3a39.94,39.94,0,0,1,61.1,10.66l83,91.91a206.26,206.26,0,0,1,22,141.51l-.42-1.72A10.73,10.73,0,0,1,2273.09,2910.57Z" transform="translate(-417.24 -120.83)"/><rect x="2050.38" y="2776.49" width="187.54" height="64.32" transform="translate(1170.36 6177.25) rotate(-133.58)"/><path class="cls-4" d="M2207.78,2795.08h0a33,33,0,0,1,33,33v411.59a0,0,0,0,1,0,0h-66a0,0,0,0,1,0,0V2828.06A33,33,0,0,1,2207.78,2795.08Z" transform="translate(4782.21 5139) rotate(163.05)"/><path d="M1186.16,2477.32c-393.21,0-712,318.76-712,712s318.76,712,712,712,712-318.76,712-712S1579.37,2477.32,1186.16,2477.32Zm0,1329.83c-341.24,0-617.87-276.63-617.87-617.86s276.63-617.87,617.87-617.87S1804,2848.05,1804,3189.29,1527.4,3807.15,1186.16,3807.15Z" transform="translate(-417.24 -120.83)"/><polygon class="cls-2" points="2253.14 2200.22 2216.35 2305.16 1455.51 2113.73 1592.54 1968.58 2253.14 2200.22"/><path d="M1702.17,2537.21c-159.36-118.5-253-179.47-475.81-198.76-364.87-31.58-691.23,167.19-806.7,465.13-9.23,23.81,8.95,49.5,36.8,51.91h0c30.21,2.62,58.61-12.9,69.58-38.4,106.57-247.76,383.48-411,692.15-384.29,196.31,17,332,56,446.19,187.15Z" transform="translate(-417.24 -120.83)"/><path d="M2865.79,2822c233.34-103.92,552.21-50.5,712.1,155.36,12.78,16.45,7.9,40.33-9.91,48.26h0c-19.33,8.61-42.51,2.76-56.92-14.63-140-168.89-416.08-205.53-613.48-117.62Z" transform="translate(-417.24 -120.83)"/><path class="cls-5" d="M1583.45,2272h0c0-84,113.71-146.51,234-128.65l284.86,42.28c59.54,8.84,102,44.8,102,86.37h0c0,11.56-13.74,20.93-30.68,20.93H1614.13C1597.18,2293,1583.45,2283.6,1583.45,2272Z" transform="translate(-417.24 -120.83)"/><path d="M3084.51,2918.2C2813,2918.2,2593,3138.27,2593,3409.73s220.06,491.53,491.53,491.53S3576,3681.19,3576,3409.73,3356,2918.2,3084.51,2918.2Zm0,918.09c-235.59,0-426.56-191-426.56-426.56s191-426.56,426.56-426.56,426.55,191,426.55,426.56S3320.09,3836.29,3084.51,3836.29Z" transform="translate(-417.24 -120.83)"/><path class="cls-5" d="M2497.89,1675.44l-30.56,15.14c0,21.25-18.59,8.43-39.84,8.43l-88.19,13c-21.25,0-38.47.38-38.47-20.87v-25.28a38.47,38.47,0,0,1,38.47-38.47l74.4,8.77C2435,1636.19,2497.89,1654.19,2497.89,1675.44Z" transform="translate(-417.24 -120.83)"/><path class="cls-5" d="M2359.85,1835.64l-35.2,9.63c25.54,9.19,10.9,22.13-23.82,33l-79.09,21.1a38.48,38.48,0,0,1-38.47-38.48v-25.28a38.47,38.47,0,0,1,38.47-38.47l84.69,12.17C2327.68,1809.34,2359.85,1814.39,2359.85,1835.64Z" transform="translate(-417.24 -120.83)"/><rect class="cls-6" x="2067.38" y="1269" width="120.87" height="444.57" rx="60.44" transform="translate(-882.77 1209.09) rotate(-31.46)"/><rect class="cls-6" x="2205.37" y="1549.98" width="120.87" height="197.98" rx="42.48" transform="translate(-365.36 3246.12) rotate(-73.86)"/><path class="cls-7" d="M2053.19,2180.17h-387a28.9,28.9,0,0,1-28.92-29.27c.29-22.52,1.11-51,0-83.61-1.34-40.87,17-146.14,19.92-161.41,12.72-66.49,17.85-196.1-19.43-475.24a29.23,29.23,0,0,1-.25-4.18c.24-15.21,3.64-70.65,48.89-115.9a166.45,166.45,0,0,1,118.07-48.91h248.68a28.92,28.92,0,0,1,28.92,28.92v860.68A28.92,28.92,0,0,1,2053.19,2180.17Z" transform="translate(-417.24 -120.83)"/><path class="cls-8" d="M1859.49,945.48h0A88.64,88.64,0,0,1,1760,869.21l-77.32-585.53c-6.41-48.54-44.11-156.44,4.42-162.85L1729,134.11c167,50.57,58.23,491.89,133.76,663.12l73,48.77A88.63,88.63,0,0,1,1859.49,945.48Z" transform="translate(-417.24 -120.83)"/><path class="cls-5" d="M1937.55,1367.09h-2c-124.42,0-272.83-100.61-272.83-224.71V1013.13c0-124.1,42.49-224.7,166.91-224.7h2c124.43,0,225.29,100.6,225.29,224.7v129.25C2056.92,1266.48,2062,1367.09,1937.55,1367.09Z" transform="translate(-417.24 -120.83)"/><circle class="cls-9" cx="1497.59" cy="1879.2" r="20.94"/><circle class="cls-9" cx="1497.59" cy="1740.94" r="20.94"/><circle class="cls-9" cx="1497.59" cy="1464.43" r="20.94"/><circle class="cls-9" cx="1497.59" cy="1326.17" r="20.94"/><circle class="cls-9" cx="1497.59" cy="1602.69" r="20.94"/><circle class="cls-10" cx="1439.25" cy="1023.48" r="49.44"/><circle class="cls-10" cx="1516" cy="1023.48" r="49.44"/><circle class="cls-10" cx="1363.25" cy="884.12" r="48.33"/><circle class="cls-10" cx="1560.99" cy="884.12" r="48.33"/><circle class="cls-11" cx="1560.99" cy="884.12" r="22.03"/><circle class="cls-11" cx="1363.25" cy="884.12" r="22.03"/><circle class="cls-10" cx="1354.25" cy="875.81" r="4.68"/><circle class="cls-10" cx="1553.43" cy="875.81" r="4.68"/><path class="cls-12" d="M1818.46,838c-91.41,16.41-170.26,32.87-216,2.72-7.68-5.06-26.65.66-25.43,7.68a2.5,2.5,0,0,1,0,.29c11.42,63.62,121.25,68.59,251.44,45.22s231.44-66.22,220-129.84a2.93,2.93,0,0,1-.05-.29c-1.3-7-21.07-5.77-26.51,1.64C1989.52,809.58,1909.87,821.56,1818.46,838Z" transform="translate(-417.24 -120.83)"/><path class="cls-12" d="M1976.4,818.85,1663.73,875c-3.19-39.43-8.41-81.61-16.44-126C1639.46,705.6,1621,589.28,1610.47,552l312.67-56.12c4.78,41.23,20,160.14,28.06,204.65C1958.7,741.79,1967.2,781.25,1976.4,818.85Z" transform="translate(-417.24 -120.83)"/><path class="cls-5" d="M1490.68,425c66.82,106.9,204.11,355.34,241.71,395.14,9.48,6.09,52,65.14,70.13,83.34,35.27,35.4-25.13,41.83-63.82,64.16h0c-42.39,24.48-44.48,23.92-69-18.48l-13.13-82C1383.18,430.06,1320.38,506.93,1331,342.6a32.9,32.9,0,0,1,6.8-18l9.67-12.53a17.35,17.35,0,0,1,20.09-5.54L1434,360.77A262.73,262.73,0,0,1,1490.68,425Z" transform="translate(-417.24 -120.83)"/><ellipse class="cls-12" cx="1477.75" cy="983.89" rx="50.07" ry="19.08"/><path class="cls-13" d="M1704.81,963.11c27.35-29.45,66.67-48.52,124-28.07" transform="translate(-417.24 -120.83)"/><path class="cls-14" d="M2251.56,1900.15c27.35-29.46,193.16-54.57,250.5-34.11" transform="translate(-417.24 -120.83)"/><path class="cls-14" d="M2502.06,1861.61c27.57-29.64,174.72-160.92-41.68-159" transform="translate(-417.24 -120.83)"/><path class="cls-13" d="M1908.66,938.34c106.38,14.56,77.26-119,124-4.85" transform="translate(-417.24 -120.83)"/><path class="cls-15" d="M1662.69,1123.8v18.58c0,124.1,148.41,224.71,272.83,224.71h2c48.23,0,77-15.12,94.15-40.86-17,11.15-39.82,27-70.61,27h-2c-124.42,0-252.33-74-291.36-203.21Z" transform="translate(-417.24 -120.83)"/><rect class="cls-16" x="1679.87" y="1365.15" width="143.95" height="444.57" rx="71.98" transform="translate(-795.89 441.97) rotate(-16.5)"/><path class="cls-16" d="M1986.31,1540.07h24.47a58,58,0,0,1,58,58v407.19a49,49,0,0,1-49,49h-42.44a49,49,0,0,1-49-49V1598.06a58,58,0,0,1,58-58Z" transform="translate(-632.9 3199.9) rotate(-76.49)"/><line class="cls-17" x1="768.92" y1="3068.45" x2="1454.24" y2="2172.14"/><line class="cls-17" x1="2667.27" y1="3288.9" x2="2207.44" y2="2034.47"/><line class="cls-17" x1="2309.08" y1="2356.48" x2="1313.29" y2="2356.48"/><line class="cls-17" x1="1834.33" y1="3068.45" x2="768.92" y2="3068.45"/><line class="cls-17" x1="2309.08" y1="2356.48" x2="1834.33" y2="3068.45"/><line class="cls-18" x1="2184.22" y1="1976.74" x2="2101.21" y2="1758.54"/><rect class="cls-19" x="2527.66" y="2106.59" width="173.78" height="50.78" transform="translate(-991.27 909.26) rotate(-20.13)"/><path class="cls-19" d="M2237.14,1918.48,2230,1905.2c-6.12-14.91,8.25-42.58,23.16-48.7l130.76-19.07c14.91-6.12,17.72,6.26,23.84,21.17l1.17,4c6.12,14.91,2.16,17.1-12.75,23.22l-123.25,27.39C2265.48,1923,2243.26,1933.38,2237.14,1918.48Z" transform="translate(-417.24 -120.83)"/><path class="cls-19" d="M2440.77,1714.34l-3.58-17.12c-6.12-14.9,12.68-14.56,27.58-20.68l49.55,4.59c59.76,13,45,12.17,51.08,27.08l-8.68,7.15c-3.58,12-3.58,15.53-18.49,21.65l-64.77-12C2455.84,1724.81,2446.89,1729.24,2440.77,1714.34Z" transform="translate(-417.24 -120.83)"/><circle cx="1844.17" cy="3068.45" r="140.08"/><path class="cls-5" d="M2317.84,3156.13h0a33,33,0,0,1,33,33V3600.7a0,0,0,0,1,0,0h-66a0,0,0,0,1,0,0V3189.12A33,33,0,0,1,2317.84,3156.13Z" transform="translate(-1301.63 701.85) rotate(-16.95)"/><polygon class="cls-7" points="1631.99 2633.64 1502.2 2684.22 1227.93 2051.26 1421.78 1996.51 1631.99 2633.64"/><polygon class="cls-7" points="1983.88 3371.93 1863.51 3429.93 1497.59 2670.54 1625.34 2613.47 1983.88 3371.93"/><path class="cls-20" d="M2552.85,3518.2,2310,3618.31a22.49,22.49,0,0,1-28.07-15l-14.87-51.87a39.93,39.93,0,0,1,34.68-51.42l117.79-38.24a206.25,206.25,0,0,1,138.17,37.7l-1.75-.32A10.73,10.73,0,0,1,2552.85,3518.2Z" transform="translate(-417.24 -120.83)"/><rect x="2287.69" y="3554.97" width="187.54" height="64.32" transform="translate(-1359.72 729.47) rotate(-16.95)"/><line class="cls-21" x1="768.92" y1="3731.13" x2="768.92" y2="2416.38"/><line class="cls-21" x1="1439.25" y1="3073.75" x2="94.81" y2="3068.45"/><line class="cls-21" x1="301.66" y1="3533.3" x2="1231.33" y2="2603.63"/><line class="cls-21" x1="1240.49" y1="3542.46" x2="293.58" y2="2588.05"/><line class="cls-21" x1="1022.97" y1="3679.04" x2="513.51" y2="2467"/><line class="cls-21" x1="1386.19" y1="2813.27" x2="144.74" y2="3329.35"/><line class="cls-21" x1="515.55" y1="3677.73" x2="1012.35" y2="2460.44"/><line class="cls-21" x1="1384.58" y1="3322.38" x2="141.82" y2="2809.46"/><line class="cls-22" x1="2667.17" y1="3719.33" x2="2667.17" y2="2856.54"/><line class="cls-22" x1="3107.06" y1="3287.93" x2="2224.79" y2="3284.46"/><line class="cls-22" x1="2360.53" y1="3589.51" x2="2970.62" y2="2979.42"/><line class="cls-22" x1="2976.63" y1="3595.51" x2="2355.23" y2="2969.2"/><line class="cls-22" x1="2833.88" y1="3685.15" x2="2499.56" y2="2889.76"/><line class="cls-22" x1="3072.25" y1="3117" x2="2257.56" y2="3455.66"/><line class="cls-22" x1="2500.9" y1="3684.28" x2="2826.92" y2="2885.46"/><line class="cls-22" x1="3071.19" y1="3451.09" x2="2255.64" y2="3114.49"/></g></g></svg>